<svg width="36" height="101" viewBox="0 0 36 101" fill="none" xmlns="http://www.w3.org/2000/svg">
<rect x="0.875" y="0.8125" width="34.244" height="100.039" rx="9.23434" fill="white" fill-opacity="0.08"/>
<rect x="1.25976" y="1.19726" width="33.4745" height="99.2692" rx="8.84958" stroke="white" stroke-opacity="0.08" stroke-width="0.769528"/>
<path d="M12.5363 93.9961H11.4542L13.4245 88.3995H14.676L16.649 93.9961H15.5669L14.0721 89.5473H14.0284L12.5363 93.9961ZM12.5719 91.8017H15.5232V92.6161H12.5719V91.8017ZM17.1886 95.5701V89.7987H18.1614V90.4928H18.2188C18.2698 90.3908 18.3418 90.2824 18.4347 90.1676C18.5276 90.051 18.6533 89.9517 18.8118 89.8697C18.9703 89.7859 19.1725 89.744 19.4184 89.744C19.7427 89.744 20.0351 89.8269 20.2956 89.9927C20.558 90.1567 20.7657 90.3999 20.9187 90.7223C21.0735 91.043 21.151 91.4365 21.151 91.9028C21.151 92.3638 21.0754 92.7554 20.9242 93.0779C20.773 93.4004 20.5671 93.6463 20.3066 93.8157C20.0461 93.9852 19.7509 94.0699 19.4212 94.0699C19.1807 94.0699 18.9812 94.0298 18.8227 93.9496C18.6642 93.8695 18.5367 93.7729 18.4401 93.66C18.3454 93.5452 18.2716 93.4368 18.2188 93.3348H18.1778V95.5701H17.1886ZM18.1587 91.8974C18.1587 92.1688 18.1969 92.4066 18.2734 92.6106C18.3518 92.8147 18.4638 92.9741 18.6096 93.0888C18.7571 93.2018 18.9357 93.2583 19.1452 93.2583C19.3638 93.2583 19.5469 93.2 19.6944 93.0834C19.842 92.965 19.9531 92.8037 20.0278 92.5997C20.1044 92.3938 20.1426 92.1597 20.1426 91.8974C20.1426 91.6369 20.1053 91.4055 20.0306 91.2033C19.9559 91.0011 19.8447 90.8426 19.6972 90.7278C19.5496 90.613 19.3656 90.5556 19.1452 90.5556C18.9338 90.5556 18.7544 90.6112 18.6068 90.7223C18.4593 90.8334 18.3472 90.9892 18.2707 91.1896C18.196 91.39 18.1587 91.6259 18.1587 91.8974ZM21.8442 93.9961V89.7987H22.8034V90.4982H22.8471C22.9236 90.2559 23.0548 90.0692 23.2406 89.938C23.4283 89.805 23.6423 89.7385 23.8828 89.7385C23.9375 89.7385 23.9985 89.7413 24.0659 89.7467C24.1351 89.7504 24.1925 89.7568 24.2381 89.7659V90.6759C24.1962 90.6613 24.1297 90.6485 24.0386 90.6376C23.9493 90.6249 23.8628 90.6185 23.779 90.6185C23.5986 90.6185 23.4365 90.6576 23.2925 90.736C23.1504 90.8125 23.0384 90.9191 22.9564 91.0557C22.8744 91.1923 22.8334 91.3499 22.8334 91.5285V93.9961H21.8442Z" fill="white"/>
</svg>
