<svg width="35" height="101" viewBox="0 0 35 101" fill="none" xmlns="http://www.w3.org/2000/svg">
<rect y="0.625" width="34.244" height="100.039" rx="9.23434" fill="white" fill-opacity="0.08"/>
<rect x="0.384764" y="1.00976" width="33.4745" height="99.2692" rx="8.84958" stroke="white" stroke-opacity="0.08" stroke-width="0.769528"/>
<path d="M10.9348 93.8105V88.214H14.5201V89.0638H11.9486V90.5832H14.2742V91.4331H11.9486V93.8105H10.9348ZM16.7963 93.8925C16.3754 93.8925 16.012 93.8051 15.7059 93.6302C15.4017 93.4535 15.1676 93.2039 15.0036 92.8814C14.8397 92.5571 14.7577 92.1755 14.7577 91.7364C14.7577 91.3047 14.8397 90.9257 15.0036 90.5996C15.1694 90.2717 15.4008 90.0166 15.6977 89.8345C15.9947 89.6505 16.3436 89.5585 16.7443 89.5585C17.003 89.5585 17.2472 89.6004 17.4767 89.6842C17.7081 89.7662 17.9121 89.8937 18.0888 90.0667C18.2674 90.2398 18.4076 90.4603 18.5097 90.7281C18.6117 90.994 18.6627 91.311 18.6627 91.679V91.9824H15.2222V91.3156H17.7145C17.7126 91.1261 17.6716 90.9576 17.5915 90.81C17.5113 90.6607 17.3993 90.5431 17.2554 90.4575C17.1133 90.3719 16.9475 90.3291 16.758 90.3291C16.5558 90.3291 16.3782 90.3783 16.2251 90.4767C16.0721 90.5732 15.9528 90.7007 15.8671 90.8592C15.7833 91.0159 15.7405 91.1881 15.7387 91.3757V91.9578C15.7387 92.2019 15.7833 92.4114 15.8726 92.5863C15.9619 92.7594 16.0867 92.8924 16.247 92.9853C16.4073 93.0764 16.595 93.1219 16.8099 93.1219C16.9539 93.1219 17.0841 93.1019 17.2007 93.0618C17.3173 93.0199 17.4184 92.9589 17.504 92.8787C17.5897 92.7985 17.6543 92.6992 17.6981 92.5808L18.6217 92.6847C18.5634 92.9288 18.4523 93.1419 18.2883 93.3241C18.1262 93.5045 17.9185 93.6448 17.6653 93.745C17.412 93.8433 17.1224 93.8925 16.7963 93.8925ZM19.3894 93.8105V88.214H20.3786V90.3072H20.4196C20.4706 90.2052 20.5426 90.0968 20.6355 89.982C20.7284 89.8654 20.8541 89.7662 21.0126 89.6842C21.1711 89.6004 21.3733 89.5585 21.6193 89.5585C21.9436 89.5585 22.236 89.6414 22.4965 89.8071C22.7588 89.9711 22.9665 90.2143 23.1195 90.5368C23.2744 90.8574 23.3518 91.2509 23.3518 91.7173C23.3518 92.1782 23.2762 92.5699 23.125 92.8924C22.9738 93.2148 22.7679 93.4608 22.5074 93.6302C22.2469 93.7996 21.9518 93.8843 21.622 93.8843C21.3815 93.8843 21.1821 93.8443 21.0236 93.7641C20.8651 93.6839 20.7375 93.5874 20.641 93.4744C20.5463 93.3597 20.4725 93.2513 20.4196 93.1492H20.3622V93.8105H19.3894ZM20.3595 91.7118C20.3595 91.9833 20.3978 92.221 20.4743 92.4251C20.5526 92.6291 20.6647 92.7885 20.8104 92.9033C20.958 93.0162 21.1365 93.0727 21.346 93.0727C21.5646 93.0727 21.7477 93.0144 21.8953 92.8978C22.0429 92.7794 22.154 92.6182 22.2287 92.4141C22.3052 92.2083 22.3435 91.9742 22.3435 91.7118C22.3435 91.4513 22.3061 91.2199 22.2314 91.0177C22.1567 90.8155 22.0456 90.657 21.898 90.5422C21.7505 90.4275 21.5665 90.3701 21.346 90.3701C21.1347 90.3701 20.9552 90.4256 20.8077 90.5368C20.6601 90.6479 20.5481 90.8037 20.4716 91.0041C20.3969 91.2045 20.3595 91.4404 20.3595 91.7118Z" fill="white"/>
</svg>
