<svg width="88" height="153" viewBox="0 0 88 153" fill="none" xmlns="http://www.w3.org/2000/svg">
<g filter="url(#filter0_d_1_140)">
<rect x="26.75" y="20" width="34.244" height="100.039" rx="9.23434" fill="url(#paint0_linear_1_140)"/>
</g>
<path d="M41.4475 107.591H42.4532V111.526C42.4513 111.887 42.3748 112.197 42.2236 112.458C42.0724 112.717 41.8611 112.916 41.5896 113.056C41.32 113.195 41.0057 113.264 40.6468 113.264C40.3189 113.264 40.0238 113.206 39.7615 113.089C39.5009 112.971 39.2942 112.796 39.1411 112.564C38.9881 112.333 38.9116 112.045 38.9116 111.701H39.9199C39.9218 111.852 39.9546 111.982 40.0183 112.092C40.0839 112.201 40.1741 112.285 40.2889 112.343C40.4036 112.401 40.5357 112.431 40.6851 112.431C40.8472 112.431 40.9848 112.397 41.0977 112.329C41.2107 112.26 41.2963 112.158 41.3546 112.023C41.4147 111.889 41.4457 111.723 41.4475 111.526V107.591ZM46.0308 111.422V108.99H47.02V113.188H46.0608V112.441H46.0171C45.9224 112.676 45.7666 112.869 45.5498 113.018C45.3348 113.167 45.0698 113.242 44.7546 113.242C44.4795 113.242 44.2363 113.181 44.025 113.059C43.8154 112.935 43.6515 112.756 43.5331 112.521C43.4147 112.284 43.3554 111.998 43.3554 111.663V108.99H44.3447V111.51C44.3447 111.776 44.4176 111.987 44.5633 112.144C44.709 112.3 44.9003 112.379 45.1372 112.379C45.2829 112.379 45.4241 112.343 45.5607 112.272C45.6974 112.201 45.8094 112.095 45.8969 111.955C45.9861 111.813 46.0308 111.635 46.0308 111.422ZM48.8726 107.591V113.188H47.8833V107.591H48.8726Z" fill="white"/>
<defs>
<filter id="filter0_d_1_140" x="0.586039" y="-0.00773525" width="86.5719" height="152.367" filterUnits="userSpaceOnUse" color-interpolation-filters="sRGB">
<feFlood flood-opacity="0" result="BackgroundImageFix"/>
<feColorMatrix in="SourceAlpha" type="matrix" values="0 0 0 0 0 0 0 0 0 0 0 0 0 0 0 0 0 0 127 0" result="hardAlpha"/>
<feMorphology radius="4.61717" operator="erode" in="SourceAlpha" result="effect1_dropShadow_1_140"/>
<feOffset dy="6.15623"/>
<feGaussianBlur stdDeviation="15.3906"/>
<feComposite in2="hardAlpha" operator="out"/>
<feColorMatrix type="matrix" values="0 0 0 0 1 0 0 0 0 0.843137 0 0 0 0 0.45098 0 0 0 0.24 0"/>
<feBlend mode="normal" in2="BackgroundImageFix" result="effect1_dropShadow_1_140"/>
<feBlend mode="normal" in="SourceGraphic" in2="effect1_dropShadow_1_140" result="shape"/>
</filter>
<linearGradient id="paint0_linear_1_140" x1="44.0644" y1="120.039" x2="75.8502" y2="108.641" gradientUnits="userSpaceOnUse">
<stop stop-color="#FFC657"/>
<stop offset="1" stop-color="#FFD977"/>
</linearGradient>
</defs>
</svg>
