<svg width="36" height="101" viewBox="0 0 36 101" fill="none" xmlns="http://www.w3.org/2000/svg">
<rect x="0.8125" y="0.90625" width="34.244" height="100.039" rx="9.23434" fill="white" fill-opacity="0.08"/>
<rect x="1.19726" y="1.29101" width="33.4745" height="99.2692" rx="8.84958" stroke="white" stroke-opacity="0.08" stroke-width="0.769528"/>
<path d="M13.971 88.4972H14.9766V92.4323C14.9748 92.793 14.8983 93.1036 14.7471 93.3641C14.5958 93.6228 14.3845 93.8223 14.1131 93.9626C13.8434 94.101 13.5292 94.1703 13.1703 94.1703C12.8424 94.1703 12.5472 94.112 12.2849 93.9954C12.0244 93.877 11.8176 93.7021 11.6646 93.4707C11.5115 93.2393 11.435 92.9515 11.435 92.6072H12.4434C12.4452 92.7584 12.478 92.8886 12.5418 92.9979C12.6073 93.1072 12.6975 93.191 12.8123 93.2493C12.9271 93.3076 13.0592 93.3368 13.2085 93.3368C13.3707 93.3368 13.5082 93.3031 13.6212 93.2357C13.7341 93.1665 13.8198 93.0644 13.8781 92.9296C13.9382 92.7948 13.9691 92.629 13.971 92.4323V88.4972ZM18.5542 92.3284V89.8963H19.5434V94.0938H18.5843V93.3477H18.5405C18.4458 93.5827 18.29 93.7749 18.0732 93.9243C17.8583 94.0737 17.5932 94.1484 17.278 94.1484C17.0029 94.1484 16.7597 94.0874 16.5484 93.9653C16.3389 93.8414 16.1749 93.662 16.0565 93.427C15.9381 93.1901 15.8789 92.9041 15.8789 92.5689V89.8963H16.8681V92.4159C16.8681 92.6819 16.941 92.8932 17.0867 93.0499C17.2325 93.2065 17.4238 93.2849 17.6606 93.2849C17.8063 93.2849 17.9475 93.2493 18.0842 93.1783C18.2208 93.1072 18.3328 93.0016 18.4203 92.8613C18.5096 92.7192 18.5542 92.5416 18.5542 92.3284ZM21.396 91.6343V94.0938H20.4068V89.8963H21.3523V90.6096H21.4015C21.498 90.3745 21.652 90.1878 21.8633 90.0494C22.0765 89.9109 22.3397 89.8417 22.6531 89.8417C22.9427 89.8417 23.195 89.9036 23.41 90.0275C23.6268 90.1514 23.7944 90.3308 23.9128 90.5658C24.0331 90.8008 24.0923 91.086 24.0905 91.4212V94.0938H23.1012V91.5742C23.1012 91.2936 23.0283 91.0741 22.8826 90.9156C22.7387 90.7571 22.5392 90.6779 22.2841 90.6779C22.1111 90.6779 21.9571 90.7161 21.8223 90.7926C21.6893 90.8673 21.5846 90.9757 21.5081 91.1178C21.4334 91.2599 21.396 91.4321 21.396 91.6343Z" fill="white"/>
</svg>
