<svg width="36" height="101" viewBox="0 0 36 101" fill="none" xmlns="http://www.w3.org/2000/svg">
<rect x="0.945312" y="0.71875" width="34.244" height="100.039" rx="9.23434" fill="white" fill-opacity="0.08"/>
<rect x="1.33008" y="1.10351" width="33.4745" height="99.2692" rx="8.84958" stroke="white" stroke-opacity="0.08" stroke-width="0.769528"/>
<path d="M11.4895 88.3097H12.7302L14.3916 92.365H14.4572L16.1187 88.3097H17.3593V93.9062H16.3865V90.0613H16.3346L14.7879 93.8899H14.061L12.5143 90.0531H12.4623V93.9062H11.4895V88.3097ZM19.4736 93.991C19.2076 93.991 18.968 93.9436 18.7549 93.8489C18.5436 93.7523 18.3759 93.6102 18.2521 93.4226C18.13 93.2349 18.069 93.0035 18.069 92.7285C18.069 92.4916 18.1127 92.2958 18.2001 92.1409C18.2876 91.9861 18.4069 91.8622 18.5581 91.7693C18.7093 91.6764 18.8797 91.6062 19.0691 91.5589C19.2604 91.5097 19.4581 91.4741 19.6621 91.4523C19.9081 91.4268 20.1076 91.404 20.2606 91.384C20.4136 91.3621 20.5248 91.3293 20.594 91.2856C20.665 91.24 20.7006 91.1699 20.7006 91.0752V91.0588C20.7006 90.8529 20.6395 90.6935 20.5175 90.5806C20.3954 90.4676 20.2196 90.4111 19.9901 90.4111C19.7478 90.4111 19.5556 90.464 19.4135 90.5696C19.2732 90.6753 19.1784 90.8001 19.1293 90.944L18.2056 90.8128C18.2785 90.5578 18.3987 90.3446 18.5663 90.1734C18.7339 90.0003 18.9389 89.871 19.1812 89.7853C19.4235 89.6979 19.6913 89.6542 19.9846 89.6542C20.1868 89.6542 20.3881 89.6779 20.5885 89.7252C20.7889 89.7726 20.972 89.8509 21.1378 89.9602C21.3036 90.0677 21.4366 90.2144 21.5368 90.4002C21.6388 90.586 21.6898 90.8183 21.6898 91.097V93.9062H20.7388V93.3297H20.706C20.6459 93.4462 20.5612 93.5556 20.4519 93.6576C20.3444 93.7578 20.2087 93.8388 20.0447 93.9008C19.8826 93.9609 19.6922 93.991 19.4736 93.991ZM19.7305 93.2641C19.929 93.2641 20.1012 93.2249 20.2469 93.1466C20.3927 93.0664 20.5047 92.9607 20.5831 92.8296C20.6632 92.6984 20.7033 92.5554 20.7033 92.4005V91.9059C20.6723 91.9314 20.6195 91.9551 20.5448 91.977C20.4719 91.9988 20.3899 92.018 20.2989 92.0344C20.2078 92.0507 20.1176 92.0653 20.0283 92.0781C19.939 92.0908 19.8616 92.1018 19.796 92.1109C19.6485 92.1309 19.5164 92.1637 19.3998 92.2092C19.2832 92.2548 19.1912 92.3186 19.1238 92.4005C19.0564 92.4807 19.0227 92.5845 19.0227 92.7121C19.0227 92.8942 19.0892 93.0318 19.2222 93.1247C19.3552 93.2176 19.5246 93.2641 19.7305 93.2641ZM22.5306 93.9062V89.7088H23.4898V90.4084H23.5335C23.61 90.1661 23.7412 89.9794 23.927 89.8482C24.1147 89.7152 24.3287 89.6487 24.5692 89.6487C24.6238 89.6487 24.6849 89.6514 24.7523 89.6569C24.8215 89.6605 24.8789 89.6669 24.9244 89.676V90.586C24.8825 90.5714 24.816 90.5587 24.725 90.5478C24.6357 90.535 24.5492 90.5286 24.4653 90.5286C24.285 90.5286 24.1228 90.5678 23.9789 90.6461C23.8368 90.7227 23.7248 90.8292 23.6428 90.9659C23.5608 91.1025 23.5198 91.2601 23.5198 91.4386V93.9062H22.5306Z" fill="white"/>
</svg>
